<svg xmlns="http://www.w3.org/2000/svg" width="179" height="48" fill="none"><path fill="#3389EB" d="m30.768 14.322-1.481 1.504-14.96 14.921a.856.856 0 0 0-.085.098c-.747-.877-4.97-5.795-8.88-9.508C3.666 19.725.246 16.149.123 16.55 0 16.953 0 17.977 0 18.706c0 10.331 8.396 18.706 18.754 18.706 10.357 0 18.753-8.375 18.753-18.706S29.111 0 18.754 0c-.584 0-1.172 0-1.732.079-.56.078 2.992 2.503 4.75 4.16 6.359 5.99 8.996 10.083 8.996 10.083Z"/><path fill="#00217A" d="m14.327 30.747 16.498-16.456a.896.896 0 0 1 1.265 0 .89.89 0 0 1 0 1.26L15.59 32.009a.895.895 0 0 1-1.264 0 .89.89 0 0 1 0-1.26Z"/><path fill="#00217A" fill-rule="evenodd" d="m16.722 32.524 15.884-15.845a2.11 2.11 0 0 1 2.979 0c.822.82.822 2.151 0 2.972l-5.388 5.374a3.96 3.96 0 0 1-.118 3.06l5.858 5.843c.53.53.53 1.388 0 1.918-.531.53-1.392.53-1.923 0l-5.857-5.843a3.99 3.99 0 0 1-3.069.117L19.7 35.495a2.11 2.11 0 0 1-2.978 0 2.097 2.097 0 0 1 0-2.971ZM28.3 26.642a1.12 1.12 0 0 1 0 1.586 1.126 1.126 0 0 1-1.59 0 1.12 1.12 0 0 1 0-1.586 1.126 1.126 0 0 1 1.59 0Z" clip-rule="evenodd"/><path fill="#3389EB" d="M4.688 7.307A4.975 4.975 0 0 0 9.67 2.338a4.975 4.975 0 0 0 4.981 4.97 4.975 4.975 0 0 0-4.981 4.968 4.975 4.975 0 0 0-4.982-4.969ZM12.893 11.4a3.22 3.22 0 0 0 3.223-3.216 3.22 3.22 0 0 0 3.224 3.215 3.22 3.22 0 0 0-3.224 3.215 3.22 3.22 0 0 0-3.223-3.215ZM8.205 15.199a2.341 2.341 0 0 0 2.344-2.338 2.341 2.341 0 0 0 2.344 2.338 2.341 2.341 0 0 0-2.344 2.338 2.341 2.341 0 0 0-2.344-2.338Z"/><path fill="#0034A3" d="M65.675 5.963c1.826 0 3.439.349 4.839 1.047a9.44 9.44 0 0 1 3.488 2.843c.95 1.198 1.663 2.594 2.138 4.19.475 1.572.713 3.243.713 5.014 0 2.42-.425 4.627-1.276 6.622-.85 1.97-2.1 3.542-3.75 4.714-1.65 1.172-3.701 1.758-6.152 1.758h-9.151c-.526 0-.976-.174-1.35-.524a1.878 1.878 0 0 1-.563-1.384V7.871c0-.55.187-.998.562-1.347a1.844 1.844 0 0 1 1.35-.561h9.152ZM65.3 28.56c1.776 0 3.213-.437 4.314-1.31 1.1-.873 1.9-2.02 2.4-3.442.525-1.446.788-3.03.788-4.751 0-1.272-.15-2.47-.45-3.592-.275-1.147-.726-2.157-1.35-3.03a6.253 6.253 0 0 0-2.326-2.095c-.925-.524-2.05-.786-3.376-.786h-7.089l.338-.337v19.717l-.225-.374H65.3ZM90.529 32.525c-2.075 0-3.876-.424-5.401-1.272-1.525-.873-2.713-2.057-3.563-3.554-.825-1.521-1.238-3.255-1.238-5.2 0-2.195.438-4.066 1.313-5.612.9-1.571 2.063-2.769 3.488-3.592 1.425-.848 2.938-1.272 4.538-1.272 1.225 0 2.388.25 3.489.749a9.044 9.044 0 0 1 2.925 2.02 9.187 9.187 0 0 1 2.063 3.03c.5 1.148.763 2.407.788 3.779-.025.499-.225.91-.6 1.235a1.945 1.945 0 0 1-1.313.486h-14.59l-.9-3.18H95.63l-.713.673v-.935c-.05-.873-.337-1.634-.862-2.282a5.09 5.09 0 0 0-1.95-1.534 5.542 5.542 0 0 0-2.439-.561c-.75 0-1.475.124-2.175.374a4.879 4.879 0 0 0-1.838 1.122c-.525.524-.95 1.222-1.275 2.095-.3.848-.45 1.908-.45 3.18 0 1.372.287 2.57.862 3.592a6.303 6.303 0 0 0 2.326 2.394c.975.549 2.05.823 3.225.823.926 0 1.688-.087 2.288-.261.6-.2 1.1-.437 1.5-.711.4-.275.75-.537 1.05-.786.376-.224.751-.337 1.126-.337.45 0 .825.162 1.125.487.3.299.45.66.45 1.085 0 .548-.275 1.047-.825 1.496-.675.649-1.613 1.222-2.813 1.721a9.407 9.407 0 0 1-3.713.748ZM113.335 12.023c1.775 0 3.15.375 4.125 1.123.976.723 1.651 1.708 2.026 2.955.4 1.223.6 2.594.6 4.116v10.026c0 .549-.188 1.01-.563 1.384-.35.35-.787.524-1.312.524-.551 0-1.001-.174-1.351-.524-.35-.374-.525-.835-.525-1.384v-9.989c0-.898-.125-1.696-.375-2.394a3.346 3.346 0 0 0-1.313-1.721c-.6-.45-1.45-.674-2.55-.674-1.025 0-1.926.225-2.701.674a4.886 4.886 0 0 0-1.838 1.72c-.425.7-.637 1.497-.637 2.395v9.99c0 .548-.188 1.01-.563 1.383-.35.35-.787.524-1.313.524-.55 0-1-.174-1.35-.524-.35-.374-.525-.835-.525-1.384V14.38c0-.548.175-.997.525-1.347.35-.374.8-.56 1.35-.56.526 0 .963.186 1.313.56.375.35.563.799.563 1.347v2.095l-.675.375c.175-.55.475-1.098.9-1.647a8.767 8.767 0 0 1 1.613-1.57 7.183 7.183 0 0 1 2.1-1.16c.775-.3 1.6-.45 2.476-.45ZM128.819 30.243c0 .549-.175 1.01-.525 1.384-.35.35-.8.524-1.35.524-.525 0-.975-.174-1.35-.524-.35-.374-.525-.835-.525-1.384V14.231c0-.549.175-.998.525-1.347a1.843 1.843 0 0 1 1.35-.561c.55 0 1 .187 1.35.56.35.35.525.799.525 1.348v16.012Zm-1.913-20.39c-.725 0-1.25-.124-1.575-.374-.325-.274-.488-.723-.488-1.346v-.6c0-.623.176-1.06.526-1.309.35-.249.875-.374 1.575-.374.75 0 1.288.138 1.613.412.325.25.487.673.487 1.272v.599c0 .648-.175 1.097-.525 1.346-.325.25-.862.374-1.613.374ZM137.915 30.243c0 .549-.187 1.01-.562 1.384-.35.35-.788.524-1.313.524-.525 0-.975-.174-1.35-.524-.35-.374-.525-.835-.525-1.384V6.374c0-.549.187-.998.562-1.347a1.844 1.844 0 0 1 1.351-.56c.55 0 .987.186 1.312.56.35.35.525.798.525 1.347v23.87ZM142.335 29.083a1.953 1.953 0 0 1-.3-1.197c.025-.474.288-.873.788-1.197.35-.224.712-.312 1.087-.262.401.025.776.212 1.126.561a8.47 8.47 0 0 0 2.325 1.834c.875.448 1.925.673 3.151.673.5-.025 1.012-.1 1.537-.225.526-.15.976-.399 1.351-.748.375-.374.562-.91.562-1.608 0-.624-.2-1.123-.6-1.497-.4-.374-.925-.673-1.575-.898a20.77 20.77 0 0 0-2.1-.673 53.318 53.318 0 0 1-2.438-.749 9.735 9.735 0 0 1-2.176-1.047 5.603 5.603 0 0 1-1.613-1.721c-.4-.698-.6-1.559-.6-2.582 0-1.172.325-2.182.975-3.03.676-.848 1.538-1.509 2.588-1.983 1.076-.474 2.238-.71 3.489-.71.725 0 1.487.1 2.288.299.8.174 1.575.461 2.325.86.75.4 1.4.923 1.95 1.572.25.324.388.71.413 1.16.05.448-.15.847-.6 1.197-.3.249-.663.361-1.088.336-.425-.025-.775-.162-1.05-.411a4.659 4.659 0 0 0-1.838-1.385c-.75-.349-1.6-.523-2.55-.523-.476 0-.976.074-1.501.224a2.69 2.69 0 0 0-1.275.71c-.35.35-.525.861-.525 1.535 0 .623.2 1.122.6 1.496.425.374.975.686 1.65.936.675.249 1.413.473 2.213.673.775.2 1.538.437 2.288.71a7.714 7.714 0 0 1 2.063 1.086 4.66 4.66 0 0 1 1.5 1.683c.401.674.601 1.534.601 2.582 0 1.222-.363 2.27-1.088 3.143-.7.848-1.6 1.496-2.701 1.945a8.767 8.767 0 0 1-3.413.673c-1.425 0-2.85-.25-4.276-.748-1.4-.524-2.588-1.422-3.563-2.694ZM170.598 32.525c-2.075 0-3.875-.424-5.401-1.272-1.525-.873-2.713-2.057-3.563-3.554-.825-1.521-1.238-3.255-1.238-5.2 0-2.195.438-4.066 1.313-5.612.9-1.571 2.063-2.769 3.488-3.592 1.426-.848 2.938-1.272 4.539-1.272a8.35 8.35 0 0 1 3.488.749 9.042 9.042 0 0 1 2.925 2.02 9.172 9.172 0 0 1 2.063 3.03c.5 1.148.763 2.407.788 3.779-.025.499-.225.91-.6 1.235a1.946 1.946 0 0 1-1.313.486h-14.59l-.9-3.18h14.102l-.712.673v-.935c-.05-.873-.338-1.634-.863-2.282a5.089 5.089 0 0 0-1.95-1.534 5.542 5.542 0 0 0-2.438-.561c-.75 0-1.476.124-2.176.374a4.887 4.887 0 0 0-1.838 1.122c-.525.524-.95 1.222-1.275 2.095-.3.848-.45 1.908-.45 3.18 0 1.372.288 2.57.863 3.592a6.303 6.303 0 0 0 2.325 2.394c.975.549 2.051.823 3.226.823.925 0 1.688-.087 2.288-.261.6-.2 1.1-.437 1.5-.711.4-.275.75-.537 1.05-.786.375-.224.75-.337 1.125-.337.451 0 .826.162 1.126.487.3.299.45.66.45 1.085 0 .548-.275 1.047-.825 1.496-.676.649-1.613 1.222-2.813 1.721a9.41 9.41 0 0 1-3.714.748Z"/><path fill="#373943" d="M59.008 43.324c0 .542-.187.994-.562 1.356-.369.355-.935.533-1.697.533h-1.257v2.721h-.853v-6.519h2.11c.737 0 1.297.178 1.678.534.388.355.581.813.581 1.375Zm-2.26 1.187c.476 0 .826-.103 1.05-.308.226-.206.338-.5.338-.88 0-.804-.462-1.206-1.387-1.206h-1.257v2.394h1.257ZM63.98 47.934l-1.557-2.665H61.39v2.666h-.853v-6.52h2.11c.493 0 .91.085 1.247.253.343.168.6.396.769.683a1.9 1.9 0 0 1 .253.982 1.9 1.9 0 0 1-.394 1.188c-.256.343-.644.57-1.163.682l1.641 2.731H63.98Zm-2.589-3.348h1.257c.462 0 .81-.112 1.04-.337.232-.23.347-.536.347-.916 0-.387-.115-.686-.347-.898-.225-.212-.572-.318-1.04-.318H61.39v2.47ZM69.675 48c-.607 0-1.16-.14-1.66-.42a3.198 3.198 0 0 1-1.191-1.189 3.45 3.45 0 0 1-.431-1.72c0-.637.144-1.207.431-1.712.294-.512.69-.908 1.19-1.188.501-.287 1.054-.43 1.66-.43.613 0 1.17.143 1.67.43.5.28.894.673 1.181 1.178.288.505.431 1.08.431 1.721 0 .642-.143 1.216-.43 1.721a3.128 3.128 0 0 1-1.182 1.188c-.5.28-1.057.421-1.67.421Zm0-.739c.456 0 .865-.106 1.228-.318a2.2 2.2 0 0 0 .863-.907c.212-.393.318-.848.318-1.366 0-.523-.106-.979-.318-1.365a2.219 2.219 0 0 0-.854-.907 2.406 2.406 0 0 0-1.237-.319c-.463 0-.876.106-1.238.319-.363.211-.65.514-.863.907-.206.386-.31.842-.31 1.365 0 .518.104.973.31 1.366.213.393.5.695.863.907.369.212.781.318 1.238.318ZM76.587 41.415c.712 0 1.328.135 1.847.403.525.262.925.639 1.2 1.131.281.493.422 1.073.422 1.74s-.14 1.247-.422 1.74c-.275.486-.675.86-1.2 1.122-.52.256-1.135.383-1.847.383h-2.035v-6.519h2.035Zm0 5.818c.843 0 1.487-.221 1.931-.664.444-.449.666-1.076.666-1.88 0-.81-.225-1.444-.675-1.899-.444-.455-1.085-.682-1.922-.682h-1.182v5.125h1.182ZM82.485 41.415v4.125c0 .58.14 1.01.422 1.29.287.282.684.422 1.19.422.5 0 .892-.14 1.173-.421.287-.28.431-.711.431-1.29v-4.126h.853v4.116c0 .542-.109 1-.328 1.375a2.06 2.06 0 0 1-.89.823c-.37.18-.785.271-1.248.271-.462 0-.881-.09-1.256-.271a2.073 2.073 0 0 1-.882-.823c-.212-.374-.318-.833-.318-1.375v-4.116h.853ZM92.47 41.415v.693h-1.782v5.827h-.853v-5.827h-1.791v-.693h4.425ZM96.952 48c-.607 0-1.16-.14-1.66-.42a3.198 3.198 0 0 1-1.19-1.189 3.45 3.45 0 0 1-.432-1.72c0-.637.144-1.207.431-1.712.294-.512.69-.908 1.191-1.188.5-.287 1.053-.43 1.66-.43.612 0 1.169.143 1.669.43.5.28.894.673 1.181 1.178.288.505.432 1.08.432 1.721 0 .642-.144 1.216-.432 1.721a3.129 3.129 0 0 1-1.181 1.188c-.5.28-1.057.421-1.67.421Zm0-.739c.456 0 .865-.106 1.228-.318a2.2 2.2 0 0 0 .863-.907c.212-.393.319-.848.319-1.366 0-.523-.107-.979-.32-1.365a2.219 2.219 0 0 0-.853-.907 2.406 2.406 0 0 0-1.237-.319c-.463 0-.876.106-1.238.319-.363.211-.65.514-.863.907-.206.386-.31.842-.31 1.365 0 .518.104.973.31 1.366.213.393.5.695.863.907.369.212.781.318 1.238.318ZM103.901 48c-.431 0-.819-.075-1.163-.224a1.99 1.99 0 0 1-.797-.637 1.66 1.66 0 0 1-.3-.944h.91c.031.305.156.564.375.776.225.206.55.309.975.309.406 0 .725-.1.957-.3a.995.995 0 0 0 .356-.785c0-.25-.069-.452-.206-.608a1.324 1.324 0 0 0-.516-.356 8.052 8.052 0 0 0-.835-.261 7.569 7.569 0 0 1-1.04-.337 1.719 1.719 0 0 1-.666-.524c-.182-.243-.272-.567-.272-.973 0-.355.09-.67.272-.944.181-.275.434-.487.759-.636.332-.15.71-.225 1.135-.225.612 0 1.113.153 1.5.459.394.305.616.71.666 1.215h-.938c-.031-.249-.162-.467-.394-.654-.231-.194-.537-.29-.919-.29-.356 0-.647.093-.872.28-.225.181-.337.437-.337.767 0 .237.066.43.197.58.137.15.303.265.497.346.2.075.478.162.834.262.432.119.779.237 1.041.356.263.112.488.29.675.533.188.237.282.56.282.972 0 .318-.085.618-.254.898a1.85 1.85 0 0 1-.75.683c-.331.175-.722.262-1.172.262ZM112.805 41.415c.712 0 1.328.135 1.847.403.525.262.925.639 1.2 1.131.281.493.422 1.073.422 1.74s-.141 1.247-.422 1.74c-.275.486-.675.86-1.2 1.122-.519.256-1.135.383-1.847.383h-2.035v-6.519h2.035Zm0 5.818c.843 0 1.487-.221 1.931-.664.444-.449.666-1.076.666-1.88 0-.81-.225-1.444-.675-1.899-.444-.455-1.085-.682-1.922-.682h-1.182v5.125h1.182ZM118.722 42.108v2.179h2.381v.701h-2.381v2.245h2.663v.702h-3.517v-6.529h3.517v.702h-2.663ZM126.967 47.242h2.288v.693h-3.142v-6.52h.854v5.827ZM131.483 41.415v6.52h-.853v-6.52h.853ZM140.036 41.462v6.472h-.854v-4.826l-2.156 4.827h-.601l-2.166-4.836v4.836h-.853v-6.473h.919l2.4 5.35 2.401-5.35h.91ZM146.321 43.324c0 .542-.187.994-.563 1.356-.368.355-.934.533-1.697.533h-1.256v2.721h-.854v-6.519h2.11c.738 0 1.297.178 1.679.534.387.355.581.813.581 1.375Zm-2.26 1.187c.475 0 .825-.103 1.05-.308.226-.206.338-.5.338-.88 0-.804-.463-1.206-1.388-1.206h-1.256v2.394h1.256ZM148.704 42.108v2.179h2.381v.701h-2.381v2.245h2.663v.702h-3.517v-6.529h3.517v.702h-2.663ZM153.849 47.196h3.188v.739h-4.201v-.674l3.169-5.107h-3.131v-.739h4.144v.674l-3.169 5.107ZM162.532 46.485h-2.851l-.525 1.45h-.9l2.363-6.482h.985l2.353 6.481h-.9l-.525-1.45Zm-.244-.692-1.181-3.293-1.182 3.293h2.363Z"/></svg>